{"title":"300.Rise.Of.An.Empire.2014.BRRip.720p.x264.AAC-PRiSTiNE [P2PDL]","uid":10356070,"size":687796359,"categoryP":"video","categoryS":"movies","magnet":"?xt=urn:btih:72444cf30551bdd49437c3e3c43990e5af39d109&amp;dn=300.Rise.Of.An.Empire.2014.BRRip.720p.x264.AAC-PRiSTiNE+%5BP2PDL%5D&amp;tr=udp%3A%2F%2Ftracker.openbittorrent.com%3A80&amp;tr=udp%3A%2F%2Fopen.demonii.com%3A1337&amp;tr=udp%3A%2F%2Ftracker.coppersurfer.tk%3A6969&amp;tr=udp%3A%2F%2Fexodus.desync.com%3A6969","seeders":5,"leechers":2,"uploader":"ValidusVyto","files":-1,"time":1402735532,"description":"____    ____ ____    ____ .___________.  ______   \n     /   /      /   / |           | /  __    \n    /   /      /   /  `---|  |----`|  |  |  | \n        /     _    _/       |  |     |  |  |  | \n       /        |  |         |  |     |  `--'  | \n    __/         |__|         |__|      ______/  \n                                                  \nPresenting Small Encodes with quality for years!\n                                                                                                   \n                                                                                                   \n\n300.Rise.Of.An.Empire.2014.BRRip.720p.x264.AAC-PRiSTiNE\n\n\nGenre:  Action | Drama | Fantasy &lt;a href=&quot;\nhttp://www.imdb.com/title/tt1253863/&quot; rel=&quot;nofollow&quot; target=&quot;_NEW&quot;&gt;\nhttp://www.imdb.com/title/tt1253863/&lt;/a&gt;\n\n\nGeneral\nFormat                         : MPEG-4\nFile size                      : 647 MiB\nDuration                       : 1h 42mn\nOverall bit rate               : 882 Kbps\n\nVideo\nFormat                         : AVC\nBit rate                       : 797 Kbps\nWidth                          : 1 280 pixels\nHeight                         : 536 pixels\nDisplay aspect ratio           : 2.40:1\nFrame rate mode                : Constant\nFrame rate                     : 23.976 fps\nBit depth                      : 8 bits\nStream size                    : 585 MiB (90%)\n\nAudio\nFormat                         : AAC\nBit rate mode                  : Variable\nBit rate                       : 81.9 Kbps\nChannel(s)                     : 2 channels\nChannel positions              : Front: L R\nSampling rate                  : 48.0 KHz\nStream size                    : 60.1 MiB (9%)\nLanguage                       : English\n\nSubtitle                       : Yes (English)\n &lt;a href=&quot;\nhttp://someimage.com/K89XLLZ&quot; rel=&quot;nofollow&quot; target=&quot;_NEW&quot;&gt;\nhttp://someimage.com/K89XLLZ&lt;/a&gt; &lt;a href=&quot;\nhttp://someimage.com/qz2EmeR&quot; rel=&quot;nofollow&quot; target=&quot;_NEW&quot;&gt;\nhttp://someimage.com/qz2EmeR&lt;/a&gt; &lt;a href=&quot;\nhttp://someimage.com/2qj0euZ&quot; rel=&quot;nofollow&quot; target=&quot;_NEW&quot;&gt;\nhttp://someimage.com/2qj0euZ&lt;/a&gt; &lt;a href=&quot;\nhttp://someimage.com/9aEIzg5&quot; rel=&quot;nofollow&quot; target=&quot;_NEW&quot;&gt;\nhttp://someimage.com/9aEIzg5&lt;/a&gt; &lt;a href=&quot;\nhttp://someimage.com/0cIulJW&quot; rel=&quot;nofollow&quot; target=&quot;_NEW&quot;&gt;\nhttp://someimage.com/0cIulJW&lt;/a&gt; &lt;a href=&quot;\nhttp://someimage.com/yZtrxEF&quot; rel=&quot;nofollow&quot; target=&quot;_NEW&quot;&gt;\nhttp://someimage.com/yZtrxEF&lt;/a&gt;\n\n----------------------------------------------------------------------------------------------------\n\n\nRecommend to you to use latest version of VLC player. Install K-Lite Codec Pack or shark007 codecs\nin case of any kind of problem in playback (For non-VLC Media Player users). Alternatively, install\nCore AVC codecs, the fastest decoder that there is coupled with Community Center Codec Pack and play\non Windows Media Player Classic. Check sample to be sure.\n\nEncoder Notes:Looking For Early Access To Anything You Can Provide DVDScr, R5, DVDR, BluRay, Direct\nAudio, Music Releases and Seedboxes. We require dedicated servers, so as to do more \nand fast releases of movies.\n\nEncode by PRiSTiNE @ P2PDL Torrent Sharing Community! Find us :)","torrent":{"xt":"urn:btih:72444cf30551bdd49437c3e3c43990e5af39d109","amp;dn":"300.Rise.Of.An.Empire.2014.BRRip.720p.x264.AAC-PRiSTiNE+%5BP2PDL%5D","amp;tr":["udp%3A%2F%2Ftracker.openbittorrent.com%3A80","udp%3A%2F%2Fopen.demonii.com%3A1337","udp%3A%2F%2Ftracker.coppersurfer.tk%3A6969","udp%3A%2F%2Fexodus.desync.com%3A6969"],"infoHash":"72444cf30551bdd49437c3e3c43990e5af39d109","infoHashBuffer":{"type":"Buffer","data":[114,68,76,243,5,81,189,212,148,55,195,227,196,57,144,229,175,57,209,9]},"announce":[],"urlList":[]}}